<?xml version="1.0" standalone="no"?>
<svg class="blob1" viewBox="0 0 200 200" xmlns="http://www.w3.org/2000/svg">
  <path fill="#E8DAFF" d="M38.9,-54.7C48.2,-46.9,51.8,-32.4,50.9,-20.1C50.1,-7.7,44.7,2.5,45.1,18.8C45.6,35.2,51.8,57.6,45.3,63.6C38.7,69.7,19.4,59.5,5.1,52.5C-9.1,45.4,-18.3,41.6,-26,35.9C-33.6,30.2,-39.9,22.6,-50.8,11.2C-61.8,-0.1,-77.6,-15.2,-76.4,-26.6C-75.2,-38,-57,-45.8,-41.5,-51.6C-25.9,-57.4,-13,-61.4,0.9,-62.7C14.8,-64,29.7,-62.6,38.9,-54.7Z" transform="translate(100 100)" />
</svg>
