<?xml version="1.0" standalone="no"?>
<svg viewBox="0 0 200 200" xmlns="http://www.w3.org/2000/svg">
  <path fill="#9EF0F0" d="M26.2,-49.1C36.6,-39.5,49.5,-37.7,60.1,-30.8C70.8,-24,79.3,-12,78.1,-0.7C76.9,10.6,66,21.2,58.9,34.3C51.8,47.4,48.6,62.9,39.4,69.3C30.2,75.8,15.1,73.1,3.1,67.6C-8.8,62.2,-17.6,54,-28,48.3C-38.4,42.5,-50.3,39.2,-55.1,31.6C-60,24,-57.6,12,-59.1,-0.8C-60.5,-13.7,-65.8,-27.3,-63.9,-40.2C-62.1,-53,-53.3,-65,-41.5,-73.8C-29.6,-82.5,-14.8,-88.1,-3.4,-82.1C7.9,-76.1,15.9,-58.7,26.2,-49.1Z" transform="translate(100 100)" />
</svg>
